# This file uses centimeters as units for non-parametric coordinates.

mtllib koi_obj.mtl
g default
v 28.640678 2.095856 1.364017
v 28.888744 2.092770 1.413952
v 28.642789 2.271514 1.364385
v 28.890855 2.268428 1.414320
v 28.776459 2.284091 0.101749
v 28.883429 2.280415 0.056027
v 28.772872 2.083760 0.109463
v 28.879842 2.080084 0.063742
v 28.830145 2.324796 0.077490
v 28.825036 2.039416 0.088479
v 28.762570 2.023805 1.388577
v 28.783691 2.326887 1.302386
v 28.895322 2.183241 0.053928
v 28.799665 2.173707 0.021937
v 28.761099 2.187853 0.111298
v 28.610010 2.173878 1.357819
v 28.727466 2.170384 1.568441
v 28.921278 2.170005 1.420476
v 28.661427 2.295569 1.123187
v 28.620971 2.175076 1.115082
v 28.658101 2.018898 1.122607
v 28.808935 1.963814 1.152986
v 28.964238 2.015088 1.184231
v 29.004986 2.160281 1.192387
v 28.967563 2.291760 1.184811
v 28.815217 2.346880 1.145452
v 28.847845 2.325900 0.982540
v 28.703379 2.280715 0.959345
v 28.665339 2.174378 0.951723
v 28.700406 2.033425 0.958827
v 28.842608 1.984686 0.987467
v 28.988944 2.029835 1.016909
v 29.027389 2.169873 1.024602
v 28.991916 2.277125 1.017427
v 28.884284 2.300854 0.801853
v 28.774983 2.262685 0.783302
v 28.746057 2.173167 0.777508
v 28.772551 2.060291 0.782878
v 28.880236 2.019428 0.804567
v 28.991148 2.057571 0.826881
v 29.020350 2.169754 0.832722
v 29.002550 2.260353 0.819919
v 28.917047 2.272894 0.657809
v 28.831242 2.242389 0.649151
v 28.808711 2.171777 0.646538
v 28.830405 2.095777 0.649071
v 28.915815 2.064062 0.658669
v 29.003417 2.094576 0.668560
v 29.025730 2.170231 0.671636
v 29.005749 2.241301 0.665996
v 28.924461 2.233466 0.487970
v 28.868700 2.205885 0.488846
v 28.854381 2.162287 0.488831
v 28.868700 2.115567 0.488846
v 28.924409 2.096395 0.488846
v 28.981293 2.115567 0.488846
v 28.995662 2.162285 0.488866
v 28.981293 2.205885 0.488846
v 28.642106 2.269478 1.364248
v 28.924667 2.253541 0.317786
v 28.887787 2.223089 0.320144
v 28.878135 2.176512 0.320642
v 28.887456 2.126319 0.320571
v 28.924223 2.105569 0.318953
v 28.961826 2.126044 0.316363
v 28.971428 2.176137 0.314925
v 28.962161 2.222818 0.315993
v 28.887382 2.295930 0.178436
v 28.857469 2.258734 0.188482
v 28.848469 2.183625 0.192824
v 28.854940 2.102769 0.192726
v 28.884087 2.069012 0.184781
v 28.915375 2.101419 0.174802
v 28.924318 2.181936 0.170376
v 28.917947 2.257397 0.170701
v 28.987858 2.057550 1.149965
v 29.005172 2.095901 1.153437
v 29.004808 2.060588 1.027574
v 29.021849 2.103708 1.030991
v 29.269391 2.070522 0.942446
v 29.267216 2.076855 0.939856
v 29.241471 2.062777 0.914876
v 29.239965 2.077513 0.912253
v 29.077610 2.103621 0.968110
v 29.059969 2.049563 0.976771
v 29.098400 2.060933 1.126341
v 29.115994 2.111456 1.117015
v 29.137810 2.093794 0.936041
v 29.127219 2.047169 0.948739
v 29.186367 2.063286 1.066743
v 29.196479 2.105432 1.053202
v 28.678473 2.062954 0.994086
v 28.640807 2.060588 1.102491
v 28.627094 2.119629 1.099712
v 28.656955 2.117691 0.988867
v 28.457652 2.082396 0.838815
v 28.441953 2.081824 0.854975
v 28.439901 2.093406 0.853119
v 28.455644 2.092895 0.837006
v 28.540647 2.126617 1.021467
v 28.561671 2.045941 1.035318
v 28.660739 2.055501 0.922674
v 28.640659 2.128526 0.909319
v 28.556101 2.111962 0.865836
v 28.504915 2.110981 0.963844
v 28.521480 2.050608 0.969242
v 28.571991 2.057299 0.871117
vt 0.375000 0.000000
vt 0.625000 0.000000
vt 0.375000 0.250000
vt 0.625000 0.250000
vt 0.375000 0.500000
vt 0.625000 0.500000
vt 0.375000 0.750000
vt 0.625000 0.750000
vt 0.375000 1.000000
vt 0.625000 1.000000
vt 0.875000 0.000000
vt 0.875000 0.250000
vt 0.125000 0.000000
vt 0.125000 0.250000
vt 0.498697 0.500000
vt 0.498697 0.750000
vt 0.498697 0.000000
vt 0.498697 1.000000
vt 0.498697 0.250000
vt 0.625000 0.620682
vt 0.875000 0.129318
vt 0.498697 0.620682
vt 0.125000 0.129318
vt 0.375000 0.620682
vt 0.375000 0.129318
vt 0.498697 0.129318
vt 0.625000 0.129318
vt 0.148403 0.250000
vt 0.375000 0.476597
vt 0.148403 0.129318
vt 0.148403 0.000000
vt 0.375000 0.773403
vt 0.498697 0.773403
vt 0.625000 0.773403
vt 0.851597 0.000000
vt 0.851597 0.129318
vt 0.625000 0.476597
vt 0.851597 0.250000
vt 0.498697 0.476597
vt 0.498697 0.482433
vt 0.142567 0.250000
vt 0.375000 0.482433
vt 0.142567 0.129318
vt 0.142567 0.000000
vt 0.375000 0.767567
vt 0.498697 0.767567
vt 0.625000 0.767567
vt 0.857433 0.000000
vt 0.857433 0.129318
vt 0.625000 0.482433
vt 0.857433 0.250000
vt 0.498697 0.488026
vt 0.136974 0.250000
vt 0.375000 0.488026
vt 0.136974 0.129318
vt 0.136974 0.000000
vt 0.375000 0.761974
vt 0.498697 0.761974
vt 0.625000 0.761974
vt 0.863026 0.000000
vt 0.863026 0.129318
vt 0.625000 0.488026
vt 0.863026 0.250000
vt 0.498697 0.494180
vt 0.130820 0.250000
vt 0.375000 0.494180
vt 0.130820 0.129318
vt 0.130820 0.000000
vt 0.375000 0.755820
vt 0.498697 0.755820
vt 0.625000 0.755820
vt 0.869180 0.000000
vt 0.869180 0.129318
vt 0.625000 0.494180
vt 0.869180 0.250000
vt 0.498697 0.495914
vt 0.129086 0.250000
vt 0.375000 0.495914
vt 0.129086 0.129318
vt 0.129086 0.000000
vt 0.375000 0.754086
vt 0.498697 0.754086
vt 0.625000 0.754086
vt 0.870914 0.000000
vt 0.870914 0.129318
vt 0.625000 0.495914
vt 0.870914 0.250000
vt 0.375000 0.247482
vt 0.498697 0.497673
vt 0.127327 0.250000
vt 0.375000 0.497673
vt 0.127327 0.129318
vt 0.127327 0.000000
vt 0.375000 0.752327
vt 0.498697 0.752327
vt 0.625000 0.752327
vt 0.872673 0.000000
vt 0.872673 0.129318
vt 0.625000 0.497673
vt 0.872673 0.250000
vt 0.498697 0.498916
vt 0.126084 0.250000
vt 0.375000 0.498916
vt 0.126084 0.129318
vt 0.126084 0.000000
vt 0.375000 0.751084
vt 0.498697 0.751084
vt 0.625000 0.751084
vt 0.873916 0.000000
vt 0.873916 0.129318
vt 0.625000 0.498916
vt 0.873916 0.250000
vt 0.851597 0.129318
vt 0.851597 0.000000
vt 0.857433 0.000000
vt 0.857433 0.129318
vt 0.851597 0.129318
vt 0.851597 0.000000
vt 0.857433 0.000000
vt 0.857433 0.129318
vt 0.857433 0.129318
vt 0.857433 0.000000
vt 0.851597 0.000000
vt 0.851597 0.129318
vt 0.857433 0.129318
vt 0.857433 0.000000
vt 0.851597 0.000000
vt 0.851597 0.129318
vt 0.142567 0.000000
vt 0.148403 0.000000
vt 0.148403 0.129318
vt 0.142567 0.129318
vt 0.142567 0.000000
vt 0.148403 0.000000
vt 0.148403 0.129318
vt 0.142567 0.129318
vt 0.148403 0.129318
vt 0.148403 0.000000
vt 0.142567 0.000000
vt 0.142567 0.129318
vt 0.142567 0.129318
vt 0.148403 0.129318
vt 0.148403 0.000000
vt 0.142567 0.000000
vn -0.093180 0.865291 0.492533
vn -0.093180 0.865291 0.492533
vn -0.093180 0.865291 0.492533
vn -0.093180 0.865291 0.492533
vn -0.093180 0.865291 0.492533
vn -0.332306 0.941115 0.062250
vn -0.332306 0.941115 0.062250
vn -0.332306 0.941115 0.062250
vn -0.332306 0.941115 0.062250
vn -0.779334 0.251222 -0.574044
vn -0.779334 0.251222 -0.574044
vn -0.779334 0.251222 -0.574044
vn -0.779334 0.251222 -0.574044
vn -0.446107 -0.874283 0.191356
vn -0.446107 -0.874283 0.191356
vn -0.446107 -0.874284 0.191356
vn -0.446107 -0.874283 0.191356
vn 0.901735 0.285494 0.324604
vn 0.901735 0.285494 0.324604
vn 0.901735 0.285494 0.324604
vn 0.901735 0.285494 0.324604
vn -0.946356 0.320495 -0.041157
vn -0.946356 0.320495 -0.041157
vn -0.946356 0.320495 -0.041157
vn -0.946356 0.320495 -0.041157
vn -0.946356 0.320495 -0.041157
vn 0.119071 0.216129 -0.969077
vn 0.119071 0.216129 -0.969077
vn 0.119071 0.216129 -0.969077
vn 0.119071 0.216129 -0.969077
vn 0.309671 -0.886655 0.343435
vn 0.309671 -0.886654 0.343435
vn 0.309671 -0.886655 0.343435
vn 0.309671 -0.886655 0.343435
vn 0.299341 0.935301 0.188697
vn 0.299341 0.935301 0.188697
vn 0.299341 0.935301 0.188697
vn 0.299341 0.935301 0.188697
vn 0.144732 -0.297439 -0.943707
vn 0.144732 -0.297439 -0.943707
vn 0.144732 -0.297439 -0.943707
vn 0.144732 -0.297439 -0.943707
vn -0.809012 -0.268053 -0.523113
vn -0.809012 -0.268053 -0.523113
vn -0.809012 -0.268053 -0.523113
vn -0.809012 -0.268053 -0.523113
vn -0.960285 -0.278731 -0.012682
vn -0.960285 -0.278731 -0.012682
vn -0.960285 -0.278731 -0.012682
vn -0.960285 -0.278731 -0.012682
vn 0.876939 -0.312992 0.364710
vn 0.876939 -0.312992 0.364710
vn 0.876939 -0.312992 0.364710
vn 0.876939 -0.312992 0.364710
vn -0.908082 0.331946 -0.255340
vn -0.908082 0.331946 -0.255340
vn -0.908082 0.331946 -0.255340
vn -0.908082 0.331946 -0.255340
vn -0.695058 -0.240306 -0.677604
vn -0.695058 -0.240306 -0.677604
vn -0.695058 -0.240306 -0.677604
vn -0.695058 -0.240306 -0.677604
vn -0.298539 -0.939164 -0.169842
vn -0.298539 -0.939164 -0.169842
vn -0.298539 -0.939164 -0.169842
vn -0.298539 -0.939164 -0.169842
vn 0.312664 -0.948716 -0.046686
vn 0.312664 -0.948716 -0.046686
vn 0.312664 -0.948716 -0.046686
vn 0.312664 -0.948716 -0.046686
vn 0.709435 -0.049957 -0.702998
vn 0.709435 -0.049957 -0.702998
vn 0.709435 -0.049957 -0.702998
vn 0.709435 -0.049957 -0.702998
vn 0.946368 0.296849 0.127551
vn 0.946368 0.296849 0.127551
vn 0.946368 0.296849 0.127551
vn 0.946368 0.296849 0.127551
vn 0.339969 0.939469 -0.042650
vn 0.339969 0.939469 -0.042650
vn 0.339969 0.939469 -0.042650
vn 0.339969 0.939469 -0.042650
vn -0.280247 0.945180 -0.167618
vn -0.280247 0.945180 -0.167618
vn -0.280247 0.945180 -0.167618
vn -0.280247 0.945180 -0.167618
vn -0.276479 0.940546 -0.197313
vn -0.276479 0.940546 -0.197313
vn -0.276479 0.940546 -0.197313
vn -0.276479 0.940546 -0.197313
vn -0.861753 0.321531 -0.392428
vn -0.861753 0.321531 -0.392428
vn -0.861753 0.321531 -0.392428
vn -0.861753 0.321531 -0.392428
vn -0.884545 -0.234347 -0.403313
vn -0.884545 -0.234347 -0.403313
vn -0.884545 -0.234347 -0.403313
vn -0.884545 -0.234347 -0.403313
vn -0.282946 -0.927125 -0.245724
vn -0.282946 -0.927125 -0.245724
vn -0.282946 -0.927125 -0.245724
vn -0.282946 -0.927125 -0.245724
vn 0.327856 -0.936826 -0.121931
vn 0.327856 -0.936826 -0.121931
vn 0.327856 -0.936826 -0.121931
vn 0.327856 -0.936826 -0.121931
vn 0.965818 -0.257383 -0.030837
vn 0.965818 -0.257383 -0.030837
vn 0.965818 -0.257383 -0.030837
vn 0.965817 -0.257383 -0.030837
vn 0.965666 0.259777 -0.002353
vn 0.965666 0.259777 -0.002353
vn 0.965666 0.259777 -0.002353
vn 0.965666 0.259777 -0.002353
vn 0.332836 0.940904 -0.062612
vn 0.332836 0.940904 -0.062612
vn 0.332836 0.940904 -0.062612
vn 0.332836 0.940904 -0.062612
vn -0.289672 0.923132 -0.252820
vn -0.289672 0.923132 -0.252820
vn -0.289672 0.923132 -0.252820
vn -0.289672 0.923132 -0.252820
vn -0.861501 0.298413 -0.410811
vn -0.861501 0.298413 -0.410811
vn -0.861501 0.298413 -0.410811
vn -0.861501 0.298413 -0.410811
vn -0.871476 -0.240231 -0.427574
vn -0.871476 -0.240231 -0.427574
vn -0.871476 -0.240231 -0.427574
vn -0.871476 -0.240231 -0.427574
vn -0.279489 -0.894271 -0.349523
vn -0.279489 -0.894271 -0.349523
vn -0.279488 -0.894271 -0.349523
vn -0.279489 -0.894271 -0.349523
vn 0.348407 -0.917585 -0.191444
vn 0.348407 -0.917585 -0.191444
vn 0.348407 -0.917585 -0.191444
vn 0.348407 -0.917585 -0.191444
vn 0.963884 -0.265404 0.022114
vn 0.963884 -0.265404 0.022114
vn 0.963884 -0.265404 0.022114
vn 0.963884 -0.265404 0.022114
vn 0.973350 0.228957 0.013008
vn 0.973350 0.228957 0.013008
vn 0.973350 0.228958 0.013008
vn 0.973350 0.228957 0.013008
vn 0.339101 0.934697 -0.106544
vn 0.339101 0.934697 -0.106544
vn 0.339101 0.934697 -0.106544
vn 0.339101 0.934697 -0.106544
vn -0.355006 0.899383 -0.255108
vn -0.355006 0.899383 -0.255108
vn -0.355006 0.899383 -0.255108
vn -0.355006 0.899383 -0.255108
vn -0.911244 0.300502 -0.281661
vn -0.911244 0.300502 -0.281661
vn -0.911244 0.300502 -0.281661
vn -0.911244 0.300502 -0.281661
vn -0.926701 -0.277221 -0.253720
vn -0.926701 -0.277221 -0.253720
vn -0.926701 -0.277221 -0.253720
vn -0.926701 -0.277221 -0.253720
vn -0.321313 -0.927286 -0.192089
vn -0.321313 -0.927286 -0.192089
vn -0.321313 -0.927286 -0.192089
vn -0.321313 -0.927286 -0.192089
vn 0.330732 -0.930939 -0.154821
vn 0.330732 -0.930939 -0.154821
vn 0.330732 -0.930939 -0.154821
vn 0.330732 -0.930939 -0.154821
vn 0.948544 -0.280628 -0.146673
vn 0.948544 -0.280628 -0.146673
vn 0.948544 -0.280628 -0.146673
vn 0.948544 -0.280628 -0.146673
vn 0.945300 0.274474 -0.176270
vn 0.945300 0.274474 -0.176270
vn 0.945300 0.274474 -0.176270
vn 0.945300 0.274474 -0.176270
vn 0.379371 0.900428 -0.212854
vn 0.379371 0.900428 -0.212854
vn 0.379371 0.900428 -0.212854
vn 0.379371 0.900428 -0.212854
vn -0.528234 0.846753 0.063075
vn -0.528234 0.846753 0.063075
vn -0.528234 0.846753 0.063075
vn -0.528234 0.846753 0.063075
vn -0.961865 0.255170 -0.098512
vn -0.961865 0.255170 -0.098512
vn -0.961865 0.255170 -0.098512
vn -0.961865 0.255170 -0.098512
vn -0.962105 -0.234609 -0.138970
vn -0.962105 -0.234609 -0.138970
vn -0.962105 -0.234609 -0.138970
vn -0.962105 -0.234609 -0.138970
vn -0.396325 -0.914986 -0.075678
vn -0.396325 -0.914986 -0.075678
vn -0.396325 -0.914986 -0.075678
vn -0.396326 -0.914986 -0.075678
vn 0.384086 -0.920257 -0.074868
vn 0.384086 -0.920257 -0.074868
vn 0.384086 -0.920257 -0.074868
vn 0.384086 -0.920257 -0.074868
vn 0.960917 -0.239949 -0.138071
vn 0.960917 -0.239949 -0.138071
vn 0.960917 -0.239949 -0.138071
vn 0.960917 -0.239949 -0.138071
vn 0.962470 0.253120 -0.097887
vn 0.962470 0.253120 -0.097887
vn 0.962470 0.253120 -0.097887
vn 0.962470 0.253120 -0.097887
vn 0.525186 0.848683 0.062584
vn 0.525186 0.848683 0.062584
vn 0.525186 0.848683 0.062584
vn 0.525186 0.848683 0.062584
vn -0.873311 0.006533 0.487120
vn -0.873311 0.006533 0.487120
vn -0.873311 0.006533 0.487120
vn -0.873311 0.006533 0.487120
vn 0.606785 -0.008960 0.794816
vn 0.606785 -0.008960 0.794816
vn 0.606785 -0.008960 0.794816
vn 0.606785 -0.008960 0.794816
vn -0.132602 -0.780859 0.610471
vn -0.132602 -0.780859 0.610471
vn -0.132602 -0.780859 0.610471
vn -0.132602 -0.780859 0.610471
vn -0.631561 0.688826 0.355879
vn -0.631561 0.688826 0.355879
vn -0.631561 0.688826 0.355879
vn -0.631561 0.688826 0.355879
vn -0.956347 0.156410 0.246853
vn -0.956347 0.156410 0.246853
vn -0.956347 0.156410 0.246853
vn -0.956347 0.156410 0.246853
vn -0.963325 -0.116390 0.241781
vn -0.963325 -0.116390 0.241781
vn -0.963325 -0.116390 0.241781
vn -0.963325 -0.116390 0.241781
vn -0.572407 -0.750268 0.330830
vn -0.572407 -0.750268 0.330830
vn -0.572407 -0.750268 0.330830
vn -0.572407 -0.750268 0.330830
vn 0.607184 -0.794431 -0.014396
vn 0.607184 -0.794431 -0.014396
vn 0.607184 -0.794431 -0.014396
vn 0.607184 -0.794431 -0.014396
vn 0.942926 -0.147292 -0.298658
vn 0.942926 -0.147292 -0.298658
vn 0.942926 -0.147292 -0.298658
vn 0.942926 -0.147292 -0.298658
vn 0.951153 0.124999 -0.282282
vn 0.951153 0.124999 -0.282282
vn 0.951153 0.124999 -0.282282
vn 0.951153 0.124999 -0.282281
vn 0.712200 0.701834 -0.014141
vn 0.712200 0.701835 -0.014141
vn 0.712200 0.701834 -0.014141
vn 0.712200 0.701834 -0.014141
vn -0.447118 0.715943 0.536201
vn -0.447118 0.715943 0.536201
vn -0.447118 0.715943 0.536201
vn -0.447118 0.715943 0.536201
vn -0.684535 0.155065 0.712297
vn -0.684535 0.155065 0.712297
vn -0.684535 0.155065 0.712297
vn -0.684535 0.155065 0.712297
vn -0.691795 -0.075744 0.718110
vn -0.691795 -0.075744 0.718110
vn -0.691795 -0.075744 0.718110
vn -0.691796 -0.075744 0.718110
vn -0.466218 -0.690324 0.553257
vn -0.466218 -0.690324 0.553257
vn -0.466218 -0.690324 0.553257
vn -0.466218 -0.690324 0.553257
vn 0.622261 -0.777275 -0.092923
vn 0.622261 -0.777275 -0.092923
vn 0.622261 -0.777275 -0.092923
vn 0.622261 -0.777275 -0.092923
vn 0.954926 -0.146970 -0.257906
vn 0.954926 -0.146970 -0.257906
vn 0.954926 -0.146970 -0.257906
vn 0.954926 -0.146970 -0.257906
vn 0.961669 0.105297 -0.253190
vn 0.961669 0.105297 -0.253190
vn 0.961669 0.105297 -0.253190
vn 0.961669 0.105297 -0.253190
vn 0.678221 0.725974 -0.113919
vn 0.678221 0.725974 -0.113919
vn 0.678221 0.725974 -0.113919
vn 0.678221 0.725974 -0.113919
vn 0.876682 -0.301099 0.375191
vn 0.876682 -0.301099 0.375191
vn 0.876682 -0.301099 0.375191
vn 0.876682 -0.301099 0.375191
vn 0.888874 -0.447022 0.100367
vn 0.888874 -0.447022 0.100367
vn 0.888874 -0.447022 0.100367
vn 0.888874 -0.447022 0.100367
vn 0.665501 -0.157348 -0.729623
vn 0.665501 -0.157348 -0.729623
vn 0.665501 -0.157348 -0.729623
vn 0.665501 -0.157348 -0.729623
vn 0.989002 -0.072692 0.128810
vn 0.989002 -0.072692 0.128810
vn 0.989002 -0.072692 0.128810
vn 0.989002 -0.072692 0.128810
vn 0.264804 -0.040555 0.963449
vn 0.264804 -0.040555 0.963449
vn 0.264804 -0.040555 0.963449
vn 0.264804 -0.040555 0.963449
vn -0.031221 -0.998965 0.033073
vn -0.031221 -0.998965 0.033073
vn -0.031221 -0.998965 0.033073
vn -0.031221 -0.998965 0.033073
vn -0.689706 0.208725 -0.693354
vn -0.689706 0.208725 -0.693354
vn -0.689706 0.208725 -0.693354
vn -0.689706 0.208725 -0.693354
vn -0.088339 0.996066 0.006963
vn -0.088339 0.996066 0.006963
vn -0.088339 0.996066 0.006963
vn -0.088339 0.996066 0.006963
vn -0.430959 -0.070012 -0.899652
vn -0.430959 -0.070012 -0.899652
vn -0.430959 -0.070012 -0.899652
vn -0.430959 -0.070012 -0.899652
vn 0.047650 -0.995253 0.084860
vn 0.047650 -0.995253 0.084860
vn 0.047650 -0.995253 0.084860
vn 0.047650 -0.995253 0.084860
vn 0.591161 0.022211 0.806248
vn 0.591161 0.022211 0.806248
vn 0.591161 0.022211 0.806248
vn 0.591161 0.022211 0.806248
vn 0.050014 0.994591 -0.091035
vn 0.050014 0.994591 -0.091035
vn 0.050014 0.994591 -0.091035
vn 0.050014 0.994591 -0.091035
vn -0.252856 -0.198977 -0.946822
vn -0.252856 -0.198977 -0.946822
vn -0.252856 -0.198977 -0.946822
vn -0.252856 -0.198977 -0.946822
vn 0.164477 -0.984368 0.062977
vn 0.164477 -0.984368 0.062977
vn 0.164477 -0.984368 0.062977
vn 0.164477 -0.984368 0.062977
vn 0.840559 0.042109 0.540081
vn 0.840559 0.042109 0.540081
vn 0.840559 0.042109 0.540081
vn 0.840559 0.042109 0.540081
vn 0.132697 0.979271 -0.153036
vn 0.132697 0.979271 -0.153036
vn 0.132697 0.979271 -0.153036
vn 0.132697 0.979271 -0.153036
vn -0.864812 -0.416802 -0.279959
vn -0.864812 -0.416802 -0.279959
vn -0.864812 -0.416802 -0.279959
vn -0.864812 -0.416802 -0.279959
vn -0.910473 -0.197697 0.363257
vn -0.910473 -0.197697 0.363257
vn -0.910473 -0.197697 0.363257
vn -0.910473 -0.197697 0.363257
vn -0.964863 -0.031204 -0.260895
vn -0.964863 -0.031204 -0.260895
vn -0.964863 -0.031204 -0.260895
vn -0.964863 -0.031204 -0.260895
vn -0.846376 -0.273511 -0.456989
vn -0.846376 -0.273511 -0.456989
vn -0.846376 -0.273511 -0.456989
vn -0.846376 -0.273511 -0.456989
vn 0.159731 -0.986107 0.045601
vn 0.159731 -0.986107 0.045601
vn 0.159731 -0.986107 0.045601
vn 0.159731 -0.986107 0.045601
vn -0.656148 -0.073748 0.751020
vn -0.656148 -0.073748 0.751020
vn -0.656148 -0.073748 0.751020
vn -0.656148 -0.073748 0.751020
vn 0.091167 0.994426 0.052965
vn 0.091167 0.994426 0.052965
vn 0.091167 0.994426 0.052965
vn 0.091167 0.994426 0.052965
vn 0.938982 0.275843 -0.205484
vn 0.938982 0.275844 -0.205484
vn 0.938982 0.275843 -0.205484
vn 0.938982 0.275843 -0.205484
vn -0.836468 -0.151025 0.526795
vn -0.836468 -0.151025 0.526795
vn -0.836468 -0.151025 0.526795
vn -0.836468 -0.151025 0.526795
vn 0.012231 -0.997594 -0.068236
vn 0.012231 -0.997594 -0.068236
vn 0.012231 -0.997594 -0.068236
vn 0.012231 -0.997594 -0.068236
vn 0.480342 0.007300 -0.877051
vn 0.480342 0.007300 -0.877051
vn 0.480342 0.007300 -0.877051
vn 0.480342 0.007300 -0.877051
vn -0.170411 0.979310 -0.109141
vn -0.170411 0.979310 -0.109141
vn -0.170411 0.979310 -0.109141
vn -0.170411 0.979310 -0.109141
vn -0.148295 0.985461 -0.082915
vn -0.148295 0.985461 -0.082915
vn -0.148295 0.985461 -0.082915
vn -0.148295 0.985461 -0.082915
vn -0.834571 -0.162869 0.526275
vn -0.834571 -0.162869 0.526275
vn -0.834571 -0.162869 0.526275
vn -0.834571 -0.162869 0.526275
vn -0.164177 -0.973856 -0.157002
vn -0.164177 -0.973856 -0.157002
vn -0.164177 -0.973856 -0.157002
vn -0.164177 -0.973856 -0.157002
vn 0.272845 -0.029701 -0.961599
vn 0.272845 -0.029701 -0.961599
vn 0.272845 -0.029701 -0.961599
vn 0.272845 -0.029701 -0.961599
s off
g pCube9
usemtl blinn3SG
f 12/19/1 3/3/2 59/88/3 17/26/4 4/4/5
f 3/3/6 12/19/7 26/39/8 19/29/9
f 5/5/10 9/15/11 14/22/12 15/24/13
f 21/32/14 22/33/15 11/18/16 1/9/17
f 18/27/18 24/36/19 25/38/20 4/4/21
f 20/30/22 16/25/23 59/88/24 3/3/25 19/28/26
f 9/15/27 6/6/28 13/20/29 14/22/30
f 11/18/31 22/33/32 23/34/33 2/10/34
f 26/39/35 12/19/36 4/4/37 25/37/38
f 14/22/39 13/20/40 8/8/41 10/16/42
f 15/24/43 14/22/44 10/16/45 7/7/46
f 21/31/47 1/1/48 16/25/49 20/30/50
f 2/2/51 23/35/52 24/36/53 18/27/54
f 29/43/55 20/30/56 19/28/57 28/41/58
f 96/133/59 97/134/60 98/135/61 99/136/62
f 30/45/63 31/46/64 22/33/65 21/32/66
f 23/34/67 22/33/68 31/46/69 32/47/70
f 81/117/71 80/118/72 82/119/73 83/120/74
f 25/38/75 24/36/76 33/49/77 34/51/78
f 34/50/79 27/40/80 26/39/81 25/37/82
f 19/29/83 26/39/84 27/40/85 28/42/86
f 28/42/87 27/40/88 35/52/89 36/54/90
f 37/55/91 29/43/92 28/41/93 36/53/94
f 38/56/95 30/44/96 29/43/97 37/55/98
f 38/57/99 39/58/100 31/46/101 30/45/102
f 32/47/103 31/46/104 39/58/105 40/59/106
f 33/49/107 32/48/108 40/60/109 41/61/110
f 34/51/111 33/49/112 41/61/113 42/63/114
f 42/62/115 35/52/116 27/40/117 34/50/118
f 36/54/119 35/52/120 43/64/121 44/66/122
f 37/55/123 36/53/124 44/65/125 45/67/126
f 38/56/127 37/55/128 45/67/129 46/68/130
f 39/58/131 38/57/132 46/69/133 47/70/134
f 40/59/135 39/58/136 47/70/137 48/71/138
f 41/61/139 40/60/140 48/72/141 49/73/142
f 42/63/143 41/61/144 49/73/145 50/75/146
f 35/52/147 42/62/148 50/74/149 43/64/150
f 44/66/151 43/64/152 51/76/153 52/78/154
f 53/79/155 45/67/156 44/65/157 52/77/158
f 54/80/159 46/68/160 45/67/161 53/79/162
f 54/81/163 55/82/164 47/70/165 46/69/166
f 48/71/167 47/70/168 55/82/169 56/83/170
f 49/73/171 48/72/172 56/84/173 57/85/174
f 50/75/175 49/73/176 57/85/177 58/87/178
f 58/86/179 51/76/180 43/64/181 50/74/182
f 52/78/183 51/76/184 60/89/185 61/91/186
f 62/92/187 53/79/188 52/77/189 61/90/190
f 63/93/191 54/80/192 53/79/193 62/92/194
f 63/94/195 64/95/196 55/82/197 54/81/198
f 56/83/199 55/82/200 64/95/201 65/96/202
f 57/85/203 56/84/204 65/97/205 66/98/206
f 58/87/207 57/85/208 66/98/209 67/100/210
f 67/99/211 60/89/212 51/76/213 58/86/214
f 17/26/215 59/88/216 16/25/217 1/1/218
f 18/27/219 4/4/220 17/26/221 2/2/222
f 17/26/223 1/1/224 11/17/225 2/2/226
f 61/91/227 60/89/228 68/101/229 69/103/230
f 70/104/231 62/92/232 61/90/233 69/102/234
f 71/105/235 63/93/236 62/92/237 70/104/238
f 71/106/239 72/107/240 64/95/241 63/94/242
f 65/96/243 64/95/244 72/107/245 73/108/246
f 66/98/247 65/97/248 73/109/249 74/110/250
f 67/100/251 66/98/252 74/110/253 75/112/254
f 75/111/255 68/101/256 60/89/257 67/99/258
f 69/103/259 68/101/260 9/15/261 5/5/262
f 15/23/263 70/104/264 69/102/265 5/14/266
f 7/13/267 71/105/268 70/104/269 15/23/270
f 7/7/271 10/16/272 72/107/273 71/106/274
f 73/108/275 72/107/276 10/16/277 8/8/278
f 74/110/279 73/109/280 8/11/281 13/21/282
f 75/112/283 74/110/284 13/21/285 6/12/286
f 9/15/287 68/101/288 75/111/289 6/6/290
f 24/36/291 23/35/292 76/114/293 77/113/294
f 23/35/295 32/48/296 78/115/297 76/114/298
f 32/48/299 33/49/300 79/116/301 78/115/302
f 33/49/303 24/36/304 77/113/305 79/116/306
f 77/113/307 76/114/308 86/123/309 87/124/310
f 76/114/311 78/115/312 85/122/313 86/123/314
f 78/115/315 79/116/316 84/121/317 85/122/318
f 79/116/319 77/113/320 87/124/321 84/121/322
f 85/122/323 84/121/324 88/125/325 89/126/326
f 86/123/327 85/122/328 89/126/329 90/127/330
f 87/124/331 86/123/332 90/127/333 91/128/334
f 84/121/335 87/124/336 91/128/337 88/125/338
f 89/126/339 88/125/340 83/120/341 82/119/342
f 90/127/343 89/126/344 82/119/345 80/118/346
f 91/128/347 90/127/348 80/118/349 81/117/350
f 88/125/351 91/128/352 81/117/353 83/120/354
f 30/44/355 21/31/356 93/130/357 92/129/358
f 21/31/359 20/30/360 94/131/361 93/130/362
f 20/30/363 29/43/364 95/132/365 94/131/366
f 29/43/367 30/44/368 92/129/369 95/132/370
f 92/129/371 93/130/372 101/138/373 102/139/374
f 93/130/375 94/131/376 100/137/377 101/138/378
f 94/131/379 95/132/380 103/140/381 100/137/382
f 95/132/383 92/129/384 102/139/385 103/140/386
f 101/138/387 100/137/388 105/142/389 106/143/390
f 102/139/391 101/138/392 106/143/393 107/144/394
f 103/140/395 102/139/396 107/144/397 104/141/398
f 100/137/399 103/140/400 104/141/401 105/142/402
f 105/142/403 104/141/404 99/136/405 98/135/406
f 106/143/407 105/142/408 98/135/409 97/134/410
f 107/144/411 106/143/412 97/134/413 96/133/414
f 104/141/415 107/144/416 96/133/417 99/136/418
